<svg xmlns="http://www.w3.org/2000/svg" xmlns:xlink="http://www.w3.org/1999/xlink" viewBox="0 0 50 50" version="1.1" width="100" height="100" style="fill: rgb(255, 255, 255);">
<g id="surface1">
<path style=" " d="M 33 2 C 32.617188 2 32.300781 2.164063 31.96875 2.296875 C 31.785156 2.289063 31.597656 2.339844 31.4375 2.4375 L 21.429688 8.441406 C 21.277344 8.535156 21.152344 8.667969 21.066406 8.824219 C 20.453125 9.371094 20 10.113281 20 11 C 20 12.644531 21.355469 14 23 14 C 23.242188 14 23.457031 13.929688 23.667969 13.84375 L 25.835938 17.417969 L 4.203125 29.425781 C 4.050781 29.511719 3.921875 29.636719 3.832031 29.789063 C 2.777344 30.507813 2 31.628906 2 33 C 2 35.199219 3.800781 37 6 37 C 6.605469 37 7.128906 36.746094 7.644531 36.503906 C 7.84375 36.503906 8.039063 36.449219 8.203125 36.339844 L 28.953125 22.554688 L 31.417969 26.609375 C 31.167969 27.019531 31 27.480469 31 28 C 31 29.644531 32.355469 31 34 31 C 34.386719 31 34.710938 30.828125 35.046875 30.691406 C 35.234375 30.699219 35.421875 30.648438 35.582031 30.550781 L 45.421875 24.632813 C 46.351563 24.128906 47 23.136719 47 22 C 47 20.355469 45.644531 19 44 19 C 43.628906 19 43.320313 19.15625 43 19.28125 L 35.40625 6.773438 C 35.773438 6.277344 36 5.664063 36 5 C 36 3.355469 34.644531 2 33 2 Z M 33 4 C 33.566406 4 34 4.433594 34 5 C 34 5.382813 33.789063 5.699219 33.46875 5.875 C 33.457031 5.878906 33.441406 5.886719 33.429688 5.898438 L 24.371094 11.34375 L 24.410156 11.40625 L 23.933594 11.699219 C 23.789063 11.714844 23.652344 11.765625 23.53125 11.84375 C 23.367188 11.945313 23.191406 12 23 12 C 22.433594 12 22 11.566406 22 11 C 22 10.636719 22.1875 10.335938 22.476563 10.15625 C 22.921875 9.878906 23.078125 9.308594 22.839844 8.84375 L 23.296875 9.652344 L 32.375 4.210938 C 32.410156 4.191406 32.445313 4.175781 32.480469 4.15625 C 32.644531 4.054688 32.8125 4 33 4 Z M 33.828125 8.03125 L 41.15625 20.09375 L 32.859375 25.128906 L 30.140625 20.652344 C 30.132813 20.644531 30.128906 20.636719 30.125 20.625 L 28.082031 17.265625 L 25.53125 13.066406 Z M 26.875 19.128906 L 27.917969 20.84375 L 7.15625 34.632813 C 7.136719 34.644531 7.117188 34.65625 7.101563 34.667969 C 6.78125 34.878906 6.410156 35 6 35 C 4.882813 35 4 34.117188 4 33 C 4 32.203125 4.460938 31.535156 5.132813 31.210938 C 5.191406 31.179688 5.246094 31.144531 5.300781 31.105469 Z M 44 21 C 44.566406 21 45 21.433594 45 22 C 45 22.382813 44.789063 22.699219 44.46875 22.875 C 44.457031 22.878906 44.441406 22.886719 44.429688 22.894531 L 35.371094 28.34375 L 35.894531 29.136719 C 35.59375 28.683594 34.988281 28.554688 34.53125 28.84375 C 34.367188 28.945313 34.191406 29 34 29 C 33.433594 29 33 28.566406 33 28 C 33 27.636719 33.1875 27.335938 33.476563 27.15625 C 33.566406 27.101563 33.644531 27.03125 33.710938 26.953125 L 34.277344 26.609375 L 34.296875 26.652344 L 43.375 21.207031 C 43.410156 21.191406 43.445313 21.175781 43.480469 21.15625 C 43.644531 21.054688 43.8125 21 44 21 Z M 27 42 C 25.355469 42 24 43.355469 24 45 L 24 48 L 48 48 L 48 45 C 48 43.355469 46.644531 42 45 42 Z M 27 44 L 45 44 C 45.566406 44 46 44.433594 46 45 L 46 46 L 26 46 L 26 45 C 26 44.433594 26.433594 44 27 44 Z "/>
</g>
</svg>