<svg xmlns="http://www.w3.org/2000/svg" xmlns:xlink="http://www.w3.org/1999/xlink" viewBox="0 0 50 50" version="1.1" width="50" height="50" style="fill: rgb(255, 255, 255);">
<g id="surface1">
<path style=" " d="M 31.84375 0 C 31.59375 0.0429688 31.371094 0.175781 31.21875 0.375 L 28.21875 4.125 C 27.742188 4.722656 27.039063 5.109375 26.28125 5.21875 L 26 5.28125 C 22.460938 5.785156 19.453125 8.148438 18.125 11.46875 L 17.5 13 L 16.21875 13 C 13.878906 13 11.671875 14.179688 10.375 16.125 L 6.28125 22.28125 L 0.4375 26.15625 C 0.09375 26.390625 -0.0664063 26.816406 0.03125 27.21875 L 4.03125 45.21875 C 4.132813 45.671875 4.535156 45.996094 5 46 L 10.15625 46 C 10.601563 47.71875 12.148438 49 14 49 C 15.199219 49 16.265625 48.441406 17 47.59375 C 17.734375 48.441406 18.800781 49 20 49 C 21.199219 49 22.265625 48.441406 23 47.59375 C 23.734375 48.441406 24.800781 49 26 49 C 27.199219 49 28.265625 48.441406 29 47.59375 C 29.734375 48.441406 30.800781 49 32 49 C 33.851563 49 35.398438 47.71875 35.84375 46 L 40.5 46 C 42.824219 46 44.800781 44.191406 45 41.875 C 45.117188 40.523438 44.597656 39.273438 43.71875 38.375 C 44.941406 37.667969 45.820313 36.425781 45.96875 34.9375 C 46.105469 33.570313 45.597656 32.289063 44.71875 31.375 C 45.929688 30.671875 46.8125 29.441406 46.96875 27.96875 C 47.117188 26.585938 46.613281 25.296875 45.71875 24.375 C 46.941406 23.675781 47.8125 22.453125 47.96875 20.96875 C 48.167969 19.054688 47.101563 17.316406 45.5 16.5 L 49.84375 9.53125 C 49.996094 9.289063 50.039063 8.996094 49.964844 8.722656 C 49.886719 8.445313 49.695313 8.21875 49.4375 8.09375 L 32.4375 0.09375 C 32.253906 0.00390625 32.046875 -0.03125 31.84375 0 Z M 32.28125 2.25 L 47.5625 9.4375 L 43.4375 16 L 25.625 16 C 25.214844 15.996094 24.839844 16.242188 24.6875 16.625 L 21.28125 25.15625 C 20.660156 26.707031 18.925781 27.433594 17.375 26.8125 C 15.824219 26.191406 15.097656 24.457031 15.71875 22.90625 L 20 12.1875 C 21.0625 9.53125 23.449219 7.65625 26.28125 7.25 L 26.5625 7.21875 C 27.820313 7.039063 28.988281 6.367188 29.78125 5.375 Z M 16.21875 15 L 16.71875 15 L 13.84375 22.1875 C 12.820313 24.742188 14.074219 27.664063 16.625 28.6875 C 19.179688 29.710938 22.101563 28.425781 23.125 25.875 L 26.28125 18 L 43.5 18 C 45 18 46.15625 19.257813 46 20.75 C 45.867188 22.03125 44.789063 23 43.5 23 L 42 23 C 41.96875 23 41.9375 23 41.90625 23 C 41.84375 23.003906 41.78125 23.015625 41.71875 23.03125 C 41.6875 23.039063 41.65625 23.050781 41.625 23.0625 C 41.5 23.101563 41.382813 23.164063 41.28125 23.25 C 41.28125 23.261719 41.28125 23.269531 41.28125 23.28125 C 41.234375 23.320313 41.195313 23.359375 41.15625 23.40625 C 41.15625 23.417969 41.15625 23.425781 41.15625 23.4375 C 41.132813 23.457031 41.113281 23.476563 41.09375 23.5 C 41.09375 23.511719 41.09375 23.519531 41.09375 23.53125 C 40.964844 23.757813 40.933594 24.027344 41 24.28125 C 41.011719 24.292969 41.019531 24.300781 41.03125 24.3125 C 41.03125 24.332031 41.03125 24.355469 41.03125 24.375 C 41.042969 24.386719 41.050781 24.394531 41.0625 24.40625 C 41.082031 24.449219 41.101563 24.492188 41.125 24.53125 C 41.136719 24.542969 41.144531 24.550781 41.15625 24.5625 C 41.164063 24.582031 41.175781 24.605469 41.1875 24.625 C 41.199219 24.636719 41.207031 24.644531 41.21875 24.65625 C 41.289063 24.742188 41.375 24.816406 41.46875 24.875 C 41.488281 24.886719 41.511719 24.898438 41.53125 24.90625 C 41.542969 24.917969 41.550781 24.925781 41.5625 24.9375 C 41.582031 24.9375 41.605469 24.9375 41.625 24.9375 C 41.636719 24.949219 41.644531 24.957031 41.65625 24.96875 C 41.675781 24.96875 41.699219 24.96875 41.71875 24.96875 C 41.730469 24.96875 41.738281 24.96875 41.75 24.96875 C 41.8125 24.984375 41.875 24.996094 41.9375 25 C 41.949219 25 41.957031 25 41.96875 25 C 41.980469 25 41.988281 25 42 25 L 42.5 25 C 44 25 45.125 26.257813 44.96875 27.75 C 44.832031 29.03125 43.785156 30 42.5 30 L 41 30 C 40.96875 30 40.9375 30 40.90625 30 C 40.84375 30.003906 40.78125 30.015625 40.71875 30.03125 C 40.6875 30.039063 40.65625 30.050781 40.625 30.0625 C 40.5 30.101563 40.382813 30.164063 40.28125 30.25 C 40.28125 30.261719 40.28125 30.269531 40.28125 30.28125 C 40.234375 30.320313 40.195313 30.359375 40.15625 30.40625 C 40.15625 30.417969 40.15625 30.425781 40.15625 30.4375 C 40.132813 30.457031 40.113281 30.476563 40.09375 30.5 C 40.09375 30.511719 40.09375 30.519531 40.09375 30.53125 C 39.964844 30.757813 39.933594 31.027344 40 31.28125 C 40.011719 31.292969 40.019531 31.300781 40.03125 31.3125 C 40.03125 31.332031 40.03125 31.355469 40.03125 31.375 C 40.042969 31.386719 40.050781 31.394531 40.0625 31.40625 C 40.082031 31.449219 40.101563 31.492188 40.125 31.53125 C 40.136719 31.542969 40.144531 31.550781 40.15625 31.5625 C 40.164063 31.582031 40.175781 31.605469 40.1875 31.625 C 40.199219 31.636719 40.207031 31.644531 40.21875 31.65625 C 40.289063 31.742188 40.375 31.816406 40.46875 31.875 C 40.488281 31.886719 40.511719 31.898438 40.53125 31.90625 C 40.542969 31.917969 40.550781 31.925781 40.5625 31.9375 C 40.582031 31.9375 40.605469 31.9375 40.625 31.9375 C 40.636719 31.949219 40.644531 31.957031 40.65625 31.96875 C 40.675781 31.96875 40.699219 31.96875 40.71875 31.96875 C 40.730469 31.96875 40.738281 31.96875 40.75 31.96875 C 40.8125 31.984375 40.875 31.996094 40.9375 32 C 40.949219 32 40.957031 32 40.96875 32 C 40.980469 32 40.988281 32 41 32 L 41.5 32 C 42.996094 32 44.117188 33.261719 43.96875 34.75 C 43.839844 36.035156 42.792969 37 41.5 37 L 39.71875 37 C 39.6875 37 39.65625 37 39.625 37 C 39.074219 37.027344 38.644531 37.496094 38.671875 38.046875 C 38.699219 38.597656 39.167969 39.027344 39.71875 39 L 40.5 39 C 41.980469 39 43.128906 40.242188 43 41.71875 C 42.886719 43.019531 41.804688 44 40.5 44 L 36 44 L 36 43 C 36 40.800781 34.199219 39 32 39 C 30.800781 39 29.734375 39.558594 29 40.40625 C 28.265625 39.558594 27.199219 39 26 39 C 24.800781 39 23.734375 39.558594 23 40.40625 C 22.265625 39.558594 21.199219 39 20 39 C 18.800781 39 17.734375 39.558594 17 40.40625 C 16.265625 39.558594 15.199219 39 14 39 C 11.800781 39 10 40.800781 10 43 L 10 44 L 5.78125 44 L 2.125 27.46875 L 7.5625 23.84375 C 7.675781 23.769531 7.769531 23.675781 7.84375 23.5625 L 12.0625 17.21875 C 12.988281 15.828125 14.546875 15 16.21875 15 Z M 14 41 C 15.117188 41 16 41.882813 16 43 L 16 45 C 16 46.117188 15.117188 47 14 47 C 12.949219 47 12.09375 46.210938 12 45.1875 C 12.027344 45.054688 12.027344 44.914063 12 44.78125 L 12 43 C 12 41.882813 12.882813 41 14 41 Z M 20 41 C 21.117188 41 22 41.882813 22 43 L 22 45 C 22 46.117188 21.117188 47 20 47 C 18.882813 47 18 46.117188 18 45 L 18 43 C 18 41.882813 18.882813 41 20 41 Z M 26 41 C 27.117188 41 28 41.882813 28 43 L 28 45 C 28 46.117188 27.117188 47 26 47 C 24.882813 47 24 46.117188 24 45 L 24 43 C 24 41.882813 24.882813 41 26 41 Z M 32 41 C 33.117188 41 34 41.882813 34 43 L 34 44.8125 C 34 44.84375 34 44.875 34 44.90625 L 34 45 C 33.992188 45.074219 33.992188 45.144531 34 45.21875 C 33.890625 46.230469 33.042969 47 32 47 C 30.882813 47 30 46.117188 30 45 L 30 43 C 30 41.882813 30.882813 41 32 41 Z "/>
</g>
</svg>