<svg xmlns="http://www.w3.org/2000/svg" xmlns:xlink="http://www.w3.org/1999/xlink" viewBox="0 0 50 50" version="1.1" width="100" height="100" style="fill: rgb(255, 255, 255);">
<g id="surface1">
<path style=" " d="M 25 0 C 22.800781 0 21 1.800781 21 4 L 21 4.53125 C 20.371094 4.179688 19.679688 4 19 4 C 18.0625 4 17.085938 4.308594 16.3125 4.96875 C 15.539063 5.628906 15 6.699219 15 7.9375 L 15 29.25 L 11.75 25.375 C 11.730469 25.351563 11.710938 25.332031 11.6875 25.3125 C 9.9375 23.5625 7.0625 23.5625 5.3125 25.3125 C 3.589844 27.035156 3.582031 29.839844 5.25 31.59375 L 5.3125 31.6875 L 16.8125 46.5 C 18.515625 48.699219 21.125 50 23.90625 50 L 32 50 C 36.957031 50 41 45.957031 41 41 L 41 13 C 41 10.800781 39.199219 9 37 9 C 36.265625 9 35.59375 9.214844 35 9.5625 L 35 6 C 35 3.800781 33.199219 2 31 2 C 30.167969 2 29.394531 2.246094 28.75 2.6875 C 28.203125 1.128906 26.738281 0 25 0 Z M 25 2 C 26.117188 2 27 2.882813 27 4 L 27 22 C 27.003906 22.0625 27.015625 22.125 27.03125 22.1875 C 27.046875 22.285156 27.078125 22.378906 27.125 22.46875 C 27.164063 22.558594 27.21875 22.644531 27.28125 22.71875 C 27.328125 22.765625 27.382813 22.808594 27.4375 22.84375 C 27.46875 22.867188 27.5 22.886719 27.53125 22.90625 C 27.621094 22.953125 27.714844 22.984375 27.8125 23 C 27.945313 23.027344 28.085938 23.027344 28.21875 23 C 28.320313 22.972656 28.414063 22.929688 28.5 22.875 C 28.519531 22.867188 28.542969 22.855469 28.5625 22.84375 C 28.621094 22.796875 28.671875 22.746094 28.71875 22.6875 C 28.792969 22.625 28.855469 22.550781 28.90625 22.46875 C 28.953125 22.371094 28.984375 22.265625 29 22.15625 C 29.003906 22.105469 29.003906 22.050781 29 22 L 29 6 C 29 4.882813 29.882813 4 31 4 C 32.117188 4 33 4.882813 33 6 L 33 22 C 33.003906 22.0625 33.015625 22.125 33.03125 22.1875 C 33.046875 22.285156 33.078125 22.378906 33.125 22.46875 C 33.164063 22.558594 33.21875 22.644531 33.28125 22.71875 C 33.328125 22.765625 33.382813 22.808594 33.4375 22.84375 C 33.46875 22.867188 33.5 22.886719 33.53125 22.90625 C 33.621094 22.953125 33.714844 22.984375 33.8125 23 C 33.945313 23.027344 34.085938 23.027344 34.21875 23 C 34.320313 22.972656 34.414063 22.929688 34.5 22.875 C 34.519531 22.867188 34.542969 22.855469 34.5625 22.84375 C 34.621094 22.796875 34.671875 22.746094 34.71875 22.6875 C 34.792969 22.625 34.855469 22.550781 34.90625 22.46875 C 34.953125 22.371094 34.984375 22.265625 35 22.15625 C 35.003906 22.105469 35.003906 22.050781 35 22 L 35 13 C 35 11.882813 35.882813 11 37 11 C 38.117188 11 39 11.882813 39 13 L 39 41 C 39 44.878906 35.878906 48 32 48 L 23.90625 48 C 21.742188 48 19.699219 46.992188 18.375 45.28125 L 6.8125 30.375 C 6.785156 30.339844 6.753906 30.308594 6.71875 30.28125 C 5.734375 29.296875 5.734375 27.703125 6.71875 26.71875 C 7.703125 25.734375 9.296875 25.734375 10.28125 26.71875 L 15.25 32.65625 C 15.523438 32.96875 15.960938 33.078125 16.351563 32.929688 C 16.738281 32.785156 16.996094 32.414063 17 32 L 17 7.9375 C 17 7.253906 17.25 6.820313 17.625 6.5 C 18 6.179688 18.539063 6 19 6 C 19.460938 6 20 6.175781 20.375 6.5 C 20.75 6.824219 21 7.265625 21 8 L 21 22 C 20.992188 22.308594 21.128906 22.601563 21.367188 22.796875 C 21.601563 22.992188 21.917969 23.066406 22.21875 23 C 22.320313 22.972656 22.414063 22.929688 22.5 22.875 C 22.519531 22.867188 22.542969 22.855469 22.5625 22.84375 C 22.621094 22.796875 22.671875 22.746094 22.71875 22.6875 C 22.898438 22.503906 22.996094 22.257813 23 22 L 23 4 C 23 2.882813 23.882813 2 25 2 Z M 24.875 29 C 22.1875 29 20 31.1875 20 33.875 C 20 35.242188 20.558594 36.488281 21.46875 37.375 L 28 43.90625 L 34.53125 37.375 C 35.441406 36.488281 36 35.242188 36 33.875 C 36 31.1875 33.8125 29 31.125 29 C 29.90625 29 28.855469 29.539063 28 30.28125 C 27.144531 29.539063 26.09375 29 24.875 29 Z M 24.875 31 C 25.828125 31 26.65625 31.472656 27.1875 32.1875 L 28 33.25 L 28.8125 32.1875 C 29.34375 31.472656 30.171875 31 31.125 31 C 32.734375 31 34 32.265625 34 33.875 C 34 34.691406 33.667969 35.441406 33.125 35.96875 L 28 41.0625 L 22.875 35.96875 C 22.332031 35.441406 22 34.691406 22 33.875 C 22 32.265625 23.265625 31 24.875 31 Z "/>
</g>
</svg>